<?xml version="1.0" encoding="utf-8"?>
<!-- Generator: Adobe Illustrator 15.0.0, SVG Export Plug-In . SVG Version: 6.00 Build 0)  -->
<!DOCTYPE svg PUBLIC "-//W3C//DTD SVG 1.1//EN" "http://www.w3.org/Graphics/SVG/1.1/DTD/svg11.dtd">
<svg version="1.1" id="Layer_1" xmlns="http://www.w3.org/2000/svg" xmlns:xlink="http://www.w3.org/1999/xlink" x="0px" y="0px"
	 width="150px" height="150px" viewBox="0 0 150 150" enable-background="new 0 0 150 150" xml:space="preserve">
<polygon fill="#FCBD21" points="15,0 19.635,9.875 30,11.459 22.5,19.146 24.271,30 15,24.875 5.729,30 7.5,19.146 0,11.459 
	10.365,9.875 "/>
<polygon fill="#B3B3B3" points="45,0 49.635,9.875 60,11.459 52.5,19.146 54.271,30 45,24.875 35.729,30 37.5,19.146 30,11.459 
	40.365,9.875 "/>
<polygon fill="#B3B3B3" points="75,0 79.635,9.875 90,11.459 82.5,19.146 84.271,30 75,24.875 65.729,30 67.5,19.146 60,11.459 
	70.365,9.875 "/>
<polygon fill="#B3B3B3" points="105,0 109.635,9.875 120,11.459 112.5,19.146 114.271,30 105,24.875 95.729,30 97.5,19.146 
	90,11.459 100.365,9.875 "/>
<polygon fill="#B3B3B3" points="135,0 139.635,9.875 150,11.459 142.5,19.146 144.271,30 135,24.875 125.729,30 127.5,19.146 
	120,11.459 130.365,9.875 "/>
<polygon fill="#FCBD21" points="15,30 19.635,39.875 30,41.459 22.5,49.146 24.271,60 15,54.875 5.729,60 7.5,49.146 0,41.459 
	10.365,39.875 "/>
<polygon fill="#FCBD21" points="45,30 49.635,39.875 60,41.459 52.5,49.146 54.271,60 45,54.875 35.729,60 37.5,49.146 30,41.459 
	40.365,39.875 "/>
<polygon fill="#B3B3B3" points="75,30 79.635,39.875 90,41.459 82.5,49.146 84.271,60 75,54.875 65.729,60 67.5,49.146 60,41.459 
	70.365,39.875 "/>
<polygon fill="#B3B3B3" points="105,30 109.635,39.875 120,41.459 112.5,49.146 114.271,60 105,54.875 95.729,60 97.5,49.146 
	90,41.459 100.365,39.875 "/>
<polygon fill="#B3B3B3" points="135,30 139.635,39.875 150,41.459 142.5,49.146 144.271,60 135,54.875 125.729,60 127.5,49.146 
	120,41.459 130.365,39.875 "/>
<polygon fill="#FCBD21" points="15,60 19.635,69.875 30,71.459 22.5,79.146 24.271,90 15,84.875 5.729,90 7.5,79.146 0,71.459 
	10.365,69.875 "/>
<polygon fill="#FCBD21" points="45,60 49.635,69.875 60,71.459 52.5,79.146 54.271,90 45,84.875 35.729,90 37.5,79.146 30,71.459 
	40.365,69.875 "/>
<polygon fill="#FCBD21" points="75,60 79.635,69.875 90,71.459 82.5,79.146 84.271,90 75,84.875 65.729,90 67.5,79.146 60,71.459 
	70.365,69.875 "/>
<polygon fill="#B3B3B3" points="105,60 109.635,69.875 120,71.459 112.5,79.146 114.271,90 105,84.875 95.729,90 97.5,79.146 
	90,71.459 100.365,69.875 "/>
<polygon fill="#B3B3B3" points="135,60 139.635,69.875 150,71.459 142.5,79.146 144.271,90 135,84.875 125.729,90 127.5,79.146 
	120,71.459 130.365,69.875 "/>
<polygon fill="#FCBD21" points="15,90 19.635,99.875 30,101.459 22.5,109.146 24.271,120 15,114.875 5.729,120 7.5,109.146 
	0,101.459 10.365,99.875 "/>
<polygon fill="#FCBD21" points="45,90 49.635,99.875 60,101.459 52.5,109.146 54.271,120 45,114.875 35.729,120 37.5,109.146 
	30,101.459 40.365,99.875 "/>
<polygon fill="#FCBD21" points="75,90 79.635,99.875 90,101.459 82.5,109.146 84.271,120 75,114.875 65.729,120 67.5,109.146 
	60,101.459 70.365,99.875 "/>
<polygon fill="#FCBD21" points="105,90 109.635,99.875 120,101.459 112.5,109.146 114.271,120 105,114.875 95.729,120 97.5,109.146 
	90,101.459 100.365,99.875 "/>
<polygon fill="#B3B3B3" points="135,90 139.635,99.875 150,101.459 142.5,109.146 144.271,120 135,114.875 125.729,120 
	127.5,109.146 120,101.459 130.365,99.875 "/>
<polygon fill="#FCBD21" points="15,120 19.635,129.875 30,131.459 22.5,139.146 24.271,150 15,144.875 5.729,150 7.5,139.146 
	0,131.459 10.365,129.875 "/>
<polygon fill="#FCBD21" points="45,120 49.635,129.875 60,131.459 52.5,139.146 54.271,150 45,144.875 35.729,150 37.5,139.146 
	30,131.459 40.365,129.875 "/>
<polygon fill="#FCBD21" points="75,120 79.635,129.875 90,131.459 82.5,139.146 84.271,150 75,144.875 65.729,150 67.5,139.146 
	60,131.459 70.365,129.875 "/>
<polygon fill="#FCBD21" points="105,120 109.635,129.875 120,131.459 112.5,139.146 114.271,150 105,144.875 95.729,150 
	97.5,139.146 90,131.459 100.365,129.875 "/>
<polygon fill="#FCBD21" points="135,120 139.635,129.875 150,131.459 142.5,139.146 144.271,150 135,144.875 125.729,150 
	127.5,139.146 120,131.459 130.365,129.875 "/>
</svg>
